<svg  viewBox="0 0 26 28" fill="none" xmlns="http://www.w3.org/2000/svg">
<path d="M5.77778 14H8.66667V16.8H5.77778V14ZM26 5.6V25.2C26 25.9426 25.6956 26.6548 25.1539 27.1799C24.6121 27.705 23.8773 28 23.1111 28H2.88889C1.28556 28 0 26.74 0 25.2V5.6C0 4.85739 0.304364 4.1452 0.846136 3.6201C1.38791 3.095 2.12271 2.8 2.88889 2.8H4.33333V0H7.22222V2.8H18.7778V0H21.6667V2.8H23.1111C23.8773 2.8 24.6121 3.095 25.1539 3.6201C25.6956 4.1452 26 4.85739 26 5.6ZM2.88889 8.4H23.1111V5.6H2.88889V8.4ZM23.1111 25.2V11.2H2.88889V25.2H23.1111ZM17.3333 16.8V14H20.2222V16.8H17.3333ZM11.5556 16.8V14H14.4444V16.8H11.5556ZM5.77778 19.6H8.66667V22.4H5.77778V19.6ZM17.3333 22.4V19.6H20.2222V22.4H17.3333ZM11.5556 22.4V19.6H14.4444V22.4H11.5556Z" fill="currentColor"/>
</svg>
