<svg viewBox="0 0 28 28" fill="none" xmlns="http://www.w3.org/2000/svg">
<path d="M14 0C6.24699 0 0 6.24699 0 14C0 21.753 6.24699 28 14 28C21.753 28 28 21.753 28 14C28 12.494 27.7981 10.9922 27.2596 9.59135L25.5096 11.3077C25.7242 12.1701 25.8462 13.0325 25.8462 14C25.8462 20.5709 20.5709 25.8462 14 25.8462C7.42909 25.8462 2.15385 20.5709 2.15385 14C2.15385 7.42909 7.42909 2.15385 14 2.15385C17.2308 2.15385 20.1334 3.44111 22.1779 5.48558L23.6923 3.97115C21.2145 1.49339 17.7692 0 14 0ZM26.149 4.61058L14 16.7596L9.38942 12.149L7.84135 13.6971L13.226 19.0817L14 19.8221L14.774 19.0817L27.6971 6.15865L26.149 4.61058Z" fill="currentColor"/>
</svg>
