<svg viewBox="0 0 13 13" fill="none" xmlns="http://www.w3.org/2000/svg">
<path d="M6.5 0C2.90039 0 0 2.90039 0 6.5C0 10.0996 2.90039 13 6.5 13C10.0996 13 13 10.0996 13 6.5C13 5.80078 12.9062 5.10352 12.6562 4.45312L11.8438 5.25C11.9434 5.65039 12 6.05078 12 6.5C12 9.55078 9.55078 12 6.5 12C3.44922 12 1 9.55078 1 6.5C1 3.44922 3.44922 1 6.5 1C8 1 9.34766 1.59766 10.2969 2.54688L11 1.84375C9.84961 0.693359 8.25 0 6.5 0ZM12.1406 2.14062L6.5 7.78125L4.35938 5.64062L3.64062 6.35938L6.14062 8.85938L6.5 9.20312L6.85938 8.85938L12.8594 2.85938L12.1406 2.14062Z" fill="#2584FC"/>
</svg>
