<svg viewBox="0 0 15 13" fill="none" xmlns="http://www.w3.org/2000/svg">
<path d="M7.5 0L0 6.88235H2.25V13H12.75V6.88235H15L7.5 0ZM8.25 11.4706H6.75V10.7059H8.25V11.4706ZM8.625 8.85529V9.94118H6.375V8.85529C5.94606 8.60279 5.61081 8.21302 5.42127 7.74645C5.23173 7.27988 5.19847 6.76257 5.32667 6.27477C5.45486 5.78696 5.73734 5.35592 6.13029 5.04848C6.52324 4.74105 7.0047 4.57441 7.5 4.57441C7.9953 4.57441 8.47676 4.74105 8.86971 5.04848C9.26266 5.35592 9.54514 5.78696 9.67333 6.27477C9.80153 6.76257 9.76827 7.27988 9.57873 7.74645C9.38918 8.21302 9.05394 8.60279 8.625 8.85529Z" fill="#FBBC04"/>
</svg>
