<svg viewBox="0 0 11 12" fill="none" xmlns="http://www.w3.org/2000/svg">
<path d="M5.5 0C3.57227 0 2 1.64062 2 3.65217C2 4.89334 2.60547 5.99185 3.51562 6.65217C1.46289 7.48777 0 9.57473 0 12H1C1 9.70516 2.5957 7.78736 4.6875 7.38587L5 8.34783H6L6.3125 7.38587C8.4043 7.78736 10 9.70516 10 12H11C11 9.57473 9.53711 7.48777 7.48438 6.65217C8.39453 5.99185 9 4.89334 9 3.65217C9 1.64062 7.42773 0 5.5 0ZM5.5 1.04348C6.88672 1.04348 8 2.20516 8 3.65217C8 5.09918 6.88672 6.26087 5.5 6.26087C4.11328 6.26087 3 5.09918 3 3.65217C3 2.20516 4.11328 1.04348 5.5 1.04348ZM5 8.86957L4.5 12H6.5L6 8.86957H5Z" fill="#0257CC"/>
</svg>
