<svg width="36" height="36" viewBox="0 0 36 36" fill="none" xmlns="http://www.w3.org/2000/svg">
<path d="M4 8C6.2091 8 8 6.2091 8 4C8 1.79086 6.2091 0 4 0C1.79086 0 0 1.79086 0 4C0 6.2091 1.79086 8 4 8Z" fill="currentColor"/>
<path d="M18 8C20.2091 8 22 6.2091 22 4C22 1.79086 20.2091 0 18 0C15.7909 0 14 1.79086 14 4C14 6.2091 15.7909 8 18 8Z" fill="currentColor"/>
<path d="M32 8C34.2091 8 36 6.2091 36 4C36 1.79086 34.2091 0 32 0C29.7909 0 28 1.79086 28 4C28 6.2091 29.7909 8 32 8Z" fill="currentColor"/>
<path d="M4 22C6.2091 22 8 20.2091 8 18C8 15.7909 6.2091 14 4 14C1.79086 14 0 15.7909 0 18C0 20.2091 1.79086 22 4 22Z" fill="currentColor"/>
<path d="M18 22C20.2091 22 22 20.2091 22 18C22 15.7909 20.2091 14 18 14C15.7909 14 14 15.7909 14 18C14 20.2091 15.7909 22 18 22Z" fill="currentColor"/>
<path d="M32 22C34.2091 22 36 20.2091 36 18C36 15.7909 34.2091 14 32 14C29.7909 14 28 15.7909 28 18C28 20.2091 29.7909 22 32 22Z" fill="currentColor"/>
<path d="M4 36C6.2091 36 8 34.2091 8 32C8 29.7909 6.2091 28 4 28C1.79086 28 0 29.7909 0 32C0 34.2091 1.79086 36 4 36Z" fill="currentColor"/>
<path d="M18 36C20.2091 36 22 34.2091 22 32C22 29.7909 20.2091 28 18 28C15.7909 28 14 29.7909 14 32C14 34.2091 15.7909 36 18 36Z" fill="currentColor"/>
<path d="M32 36C34.2091 36 36 34.2091 36 32C36 29.7909 34.2091 28 32 28C29.7909 28 28 29.7909 28 32C28 34.2091 29.7909 36 32 36Z" fill="currentColor"/>
</svg>
