<svg viewBox="0 0 27 28" fill="none" xmlns="http://www.w3.org/2000/svg">
<path d="M13.8477 10.4286C13.1218 10.3559 12.3914 10.5125 11.7566 10.8771C11.1218 11.2417 10.6137 11.7963 10.3017 12.4652C9.9897 13.134 9.88916 13.8843 10.0138 14.6133C10.1385 15.3423 10.4823 16.0145 10.9981 16.5377C11.5139 17.0609 12.1766 17.4096 12.8953 17.536C13.6141 17.6624 14.3538 17.5605 15.0132 17.244C15.6726 16.9276 16.2195 16.4121 16.5789 15.7683C16.9383 15.1244 17.0928 14.3836 17.0211 13.6473C16.9393 12.8219 16.5787 12.0505 16.0004 11.4639C15.4221 10.8773 14.6615 10.5115 13.8477 10.4286V10.4286ZM22.3671 14C22.3649 14.3901 22.3366 14.7796 22.2825 15.1658L24.7819 17.1542C24.8908 17.2457 24.9641 17.3734 24.9889 17.5146C25.0137 17.6557 24.9884 17.8012 24.9174 17.9252L22.5529 22.0748C22.4811 22.1976 22.3688 22.2907 22.2359 22.3378C22.103 22.3849 21.958 22.3829 21.8264 22.3321L19.3441 21.3183C19.2073 21.263 19.059 21.2431 18.9126 21.2602C18.7663 21.2773 18.6264 21.331 18.5055 21.4164C18.1266 21.6811 17.7286 21.9161 17.3146 22.1196C17.1845 22.1838 17.072 22.2794 16.9869 22.3982C16.9019 22.5169 16.847 22.655 16.827 22.8004L16.455 25.4858C16.4305 25.6276 16.3583 25.7564 16.2506 25.8502C16.1429 25.944 16.0064 25.997 15.8645 26H11.1355C10.9959 25.9976 10.8613 25.947 10.7539 25.8565C10.6465 25.7661 10.5726 25.6413 10.5445 25.5026L10.173 22.8211C10.1521 22.6742 10.0958 22.5347 10.009 22.4152C9.92216 22.2956 9.80758 22.1997 9.67541 22.1359C9.26199 21.9335 8.86525 21.6978 8.489 21.431C8.36853 21.346 8.2291 21.2927 8.08327 21.276C7.93744 21.2593 7.7898 21.2796 7.65365 21.3351L5.17192 22.3484C5.0404 22.3992 4.89543 22.4013 4.76254 22.3543C4.62965 22.3073 4.51737 22.2143 4.44547 22.0916L2.08095 17.9421C2.00986 17.8181 1.98446 17.6725 2.00926 17.5313C2.03406 17.3902 2.10747 17.2625 2.2164 17.171L4.32882 15.4888C4.44455 15.3956 4.53551 15.2746 4.59344 15.1367C4.65136 14.9988 4.67443 14.8485 4.66053 14.6993C4.64063 14.4654 4.62847 14.2321 4.62847 13.9983C4.62847 13.7645 4.64008 13.5346 4.66053 13.3058C4.67291 13.1575 4.64871 13.0084 4.59013 12.8719C4.53155 12.7355 4.44042 12.616 4.32495 12.5241L2.21363 10.8419C2.10647 10.75 2.03461 10.6227 2.01066 10.4825C1.9867 10.3422 2.01217 10.1979 2.08261 10.0748L4.44713 5.92523C4.51894 5.80242 4.63118 5.70927 4.76408 5.66218C4.89698 5.61509 5.04199 5.6171 5.17357 5.66785L7.65586 6.68168C7.79274 6.73696 7.94101 6.75694 8.08738 6.73981C8.23375 6.72268 8.37364 6.66899 8.49453 6.58355C8.87336 6.31895 9.27145 6.08388 9.68536 5.88037C9.81548 5.81622 9.92804 5.72056 10.0131 5.60184C10.0981 5.48311 10.153 5.34498 10.173 5.19963L10.545 2.51421C10.5695 2.37238 10.6417 2.24357 10.7494 2.14978C10.8571 2.05599 10.9936 2.00305 11.1355 2H15.8645C16.0041 2.00245 16.1387 2.05305 16.2461 2.14346C16.3535 2.23387 16.4274 2.3587 16.4555 2.49738L16.827 5.17888C16.8479 5.32583 16.9042 5.46528 16.991 5.58482C17.0778 5.70437 17.1924 5.80031 17.3246 5.86411C17.738 6.06652 18.1347 6.30223 18.511 6.56897C18.6315 6.65399 18.7709 6.70727 18.9167 6.72401C19.0626 6.74075 19.2102 6.72042 19.3464 6.66486L21.8281 5.65159C21.9596 5.60079 22.1046 5.5987 22.2375 5.64568C22.3704 5.69266 22.4826 5.7857 22.5545 5.90841L24.9191 10.0579C24.9901 10.1819 25.0155 10.3275 24.9907 10.4687C24.9659 10.6098 24.8925 10.7375 24.7836 10.829L22.6712 12.5112C22.5549 12.6041 22.4635 12.725 22.405 12.8629C22.3466 13.0008 22.3231 13.1513 22.3367 13.3007C22.3549 13.5329 22.3671 13.7662 22.3671 14Z" stroke="currentColor" stroke-width="3" stroke-linecap="round" stroke-linejoin="round"/>
</svg>
